<svg xmlns="http://www.w3.org/2000/svg" id="Layer_2" data-name="Layer 2" viewBox="0 0 115.23 37.3"><defs><style>      .cls-1 {        fill: #21ace3;      }    </style></defs><g id="Layer_1-2" data-name="Layer 1"><g><polygon class="cls-1" points="0 18.65 18.74 0 32.01 13.16 32.01 18.49 28.71 21.72 28.71 14.64 18.95 4.86 4.88 18.49 4.83 23.46 0 18.65"></polygon><polygon class="cls-1" points="32.64 13.84 37.53 18.65 28.24 27.95 23.57 27.95 32.7 18.86 32.64 13.84"></polygon><polygon class="cls-1" points="9.45 23.46 9.45 28.11 18.74 37.3 23.57 32.55 18.63 32.55 9.45 23.46"></polygon><g><polygon points="15.55 28.58 28.5 28.58 32.01 25.1 32.01 31.86 18.95 31.86 15.55 28.58"></polygon><polygon points="5.47 18.86 5.47 31.86 12.26 31.86 8.76 28.43 8.76 15.59 5.47 18.86"></polygon><polygon points="48.67 4.33 47.56 10.57 54.19 10.57 50.37 32.18 56.74 32.18 60.61 10.57 67.2 10.57 68.31 4.39 48.67 4.33"></polygon><polygon points="95.54 4.39 94.42 10.57 101.06 10.57 97.24 32.18 103.61 32.18 107.48 10.57 114.11 10.57 115.23 4.39 95.54 4.39"></polygon><path d="M86.94,26.79c2.28-4.12,2.97-9.4,2.97-9.4h-6.16l-.58,3.54-1.59-3.22c1.59-1.22,2.76-2.32,2.76-2.32,1.11-.95,2.18-2.91,2.18-2.91,1.54-3.06,.21-5.5,.21-5.5-1.01-2.17-3.24-2.54-3.24-2.54-2.18-.48-3.87,0-3.87,0-6.05,1.32-6.74,6.29-6.74,6.29-.58,3.17,1.22,6.6,1.22,6.6-5.41,4.39-5.41,8.35-5.41,8.35-.16,3.91,2.12,5.71,2.12,5.71,2.28,2.11,6.79,1.59,6.79,1.59,3.08-.26,4.88-1.74,4.88-1.74l.42,.9h7.59l-3.56-5.34Zm-8.28,1.43s-2.12,.42-3.08-.69c0,0-.48-.48-.53-1.8,0,0-.27-2.11,1.65-4.91l3.72,6.66s-.48,.48-1.75,.74Zm.05-12.42s-2.87-5.28,.74-7.61c0,0,3.08-1.53,3.13,1.58,.05-.05,.53,2.8-3.87,6.02Z"></path></g></g></g></svg>